<?xml version="1.0" encoding="utf-8"?>
<!-- Generator: Adobe Illustrator 19.0.0, SVG Export Plug-In . SVG Version: 6.00 Build 0)  -->
<svg version="1.1" id="Camada_1" xmlns="http://www.w3.org/2000/svg" xmlns:xlink="http://www.w3.org/1999/xlink" x="0px" y="0px"
	 viewBox="0 14 24 24" style="enable-background:new 0 14 24 24;" xml:space="preserve">
<style type="text/css">
	.st0{fill:#FFFFFF;}
</style>
<path class="st0" d="M22,26c0,5.5-4.5,10-10,10S2,31.5,2,26s4.5-10,10-10S22,20.5,22,26z M20,26c0-4.4-3.6-8-8-8s-8,3.6-8,8
	s3.6,8,8,8S20,30.4,20,26z M11,32v-7h2v7H11z M12,23.3c-0.3,0-0.6-0.1-0.9-0.4c-0.2-0.2-0.4-0.6-0.4-0.9s0.1-0.6,0.4-0.9
	c0.2-0.2,0.5-0.4,0.9-0.4c0.3,0,0.6,0.1,0.9,0.4c0.2,0.2,0.4,0.5,0.4,0.9s-0.1,0.6-0.4,0.9C12.6,23.1,12.3,23.3,12,23.3z"/>
</svg>
