<?xml version="1.0" encoding="utf-8"?>
<!-- Generator: Adobe Illustrator 19.0.0, SVG Export Plug-In . SVG Version: 6.00 Build 0)  -->
<svg version="1.1" id="Camada_1" xmlns="http://www.w3.org/2000/svg" xmlns:xlink="http://www.w3.org/1999/xlink" x="0px" y="0px"
	 viewBox="-2 16 20 20" style="enable-background:new -2 16 20 20;" xml:space="preserve">
<style type="text/css">
	.st0{fill:#808080;}
</style>
<title>Instagram Icon</title>
<g>
	<path class="st0" d="M8,23.1c-1.6,0-2.9,1.3-2.9,2.9c0,1.6,1.3,2.9,2.9,2.9c1.6,0,2.9-1.3,2.9-2.9C10.9,24.4,9.6,23.1,8,23.1z"/>
	<g>
		<path class="st0" d="M17.1,18.6c-0.4-0.7-0.9-1.3-1.7-1.7c-0.8-0.4-1.9-0.4-4-0.4H4.6c-2.1,0-3.2,0-4,0.4
			c-0.7,0.4-1.3,0.9-1.7,1.7c-0.4,0.8-0.4,1.9-0.4,4v6.9c0,2.1,0,3.2,0.4,4c0.4,0.7,0.9,1.3,1.7,1.7c0.8,0.4,1.9,0.4,4,0.4h6.9
			c2.1,0,3.2,0,4-0.4c0.7-0.4,1.3-0.9,1.7-1.7c0.4-0.8,0.4-1.9,0.4-4v-6.9C17.5,20.4,17.5,19.4,17.1,18.6z M8,30.8
			c-2.6,0-4.8-2.1-4.8-4.8c0-2.6,2.1-4.8,4.8-4.8c2.6,0,4.8,2.1,4.8,4.8C12.8,28.6,10.6,30.8,8,30.8z M13.8,21.3c-0.5,0-1-0.4-1-1
			s0.4-1,1-1c0.5,0,1,0.4,1,1S14.3,21.3,13.8,21.3z"/>
	</g>
</g>
</svg>
