<?xml version="1.0" encoding="utf-8"?>
<!-- Generator: Adobe Illustrator 19.0.0, SVG Export Plug-In . SVG Version: 6.00 Build 0)  -->
<svg version="1.1" id="Camada_1" xmlns="http://www.w3.org/2000/svg" xmlns:xlink="http://www.w3.org/1999/xlink" x="0px" y="0px"
	 viewBox="0 14 24 24" style="enable-background:new 0 14 24 24;" xml:space="preserve">
<style type="text/css">
	.st0{fill:#808080;}
</style>
<path class="st0" d="M19,14H5c-2.8,0-5,2.2-5,5v14c0,2.8,2.2,5,5,5h14c2.8,0,5-2.2,5-5V19C24,16.2,21.8,14,19,14z M8,33H5V22h3V33z
	 M6.5,20.7c-1,0-1.8-0.8-1.8-1.8s0.8-1.8,1.8-1.8S8.3,18,8.3,19S7.5,20.7,6.5,20.7z M20,33h-3v-5.6c0-3.4-4-3.1-4,0V33h-3V22h3v1.8
	c1.4-2.6,7-2.8,7,2.5V33z"/>
</svg>
